<mxfile host="app.diagrams.net" modified="2020-12-10T19:05:21.242Z" agent="5.0 (Windows)" etag="hWgIwt6fkncJwJw7pHp4" version="13.10.9" type="github">
  <diagram name="Page-1" id="58cdce13-f638-feb5-8d6f-7d28b1aa9fa0">
    <mxGraphModel dx="942" dy="583" grid="1" gridSize="10" guides="1" tooltips="1" connect="1" arrows="1" fold="1" page="1" pageScale="1" pageWidth="850" pageHeight="1100" background="#ffffff" math="0" shadow="0">
      <root>
        <mxCell id="0" />
        <mxCell id="1" parent="0" />
        <mxCell id="382b91b5511bd0f7-1" value="" style="ellipse;html=1;shape=startState;fillColor=#000000;strokeColor=#ff0000;rounded=1;shadow=0;comic=0;labelBackgroundColor=none;fontFamily=Verdana;fontSize=12;fontColor=#000000;align=center;direction=south;" parent="1" vertex="1">
          <mxGeometry x="50" y="117.5" width="30" height="30" as="geometry" />
        </mxCell>
        <mxCell id="2a3bc250acf0617d-8" value="Gun installation" style="shape=umlFrame;whiteSpace=wrap;html=1;rounded=1;shadow=0;comic=0;labelBackgroundColor=none;strokeWidth=1;fontFamily=Verdana;fontSize=12;align=center;width=120;height=50;" parent="1" vertex="1">
          <mxGeometry x="10" y="16.25" width="840" height="923.75" as="geometry" />
        </mxCell>
        <mxCell id="aduVR0IKgrhrelH6BX9p-2" value="Gun assembling" style="text;html=1;strokeColor=none;fillColor=none;align=center;verticalAlign=middle;whiteSpace=wrap;rounded=0;" parent="1" vertex="1">
          <mxGeometry x="20" y="165" width="110" height="20" as="geometry" />
        </mxCell>
        <mxCell id="aduVR0IKgrhrelH6BX9p-11" value="" style="edgeStyle=orthogonalEdgeStyle;rounded=0;orthogonalLoop=1;jettySize=auto;html=1;strokeColor=#FF0000;entryX=0;entryY=0.5;entryDx=0;entryDy=0;" parent="1" source="aduVR0IKgrhrelH6BX9p-3" target="aduVR0IKgrhrelH6BX9p-10" edge="1">
          <mxGeometry relative="1" as="geometry">
            <mxPoint x="198" y="208" as="sourcePoint" />
            <Array as="points">
              <mxPoint x="198" y="208" />
            </Array>
          </mxGeometry>
        </mxCell>
        <mxCell id="aduVR0IKgrhrelH6BX9p-3" value="" style="html=1;points=[];perimeter=orthogonalPerimeter;fillColor=#000000;strokeColor=none;" parent="1" vertex="1">
          <mxGeometry x="190" y="40" width="5" height="340" as="geometry" />
        </mxCell>
        <mxCell id="aduVR0IKgrhrelH6BX9p-4" style="edgeStyle=orthogonalEdgeStyle;html=1;labelBackgroundColor=none;endArrow=open;endSize=8;strokeColor=#ff0000;fontFamily=Verdana;fontSize=12;align=left;" parent="1" source="382b91b5511bd0f7-1" target="aduVR0IKgrhrelH6BX9p-3" edge="1">
          <mxGeometry relative="1" as="geometry">
            <mxPoint x="65" y="150" as="sourcePoint" />
            <mxPoint x="230" y="150" as="targetPoint" />
          </mxGeometry>
        </mxCell>
        <mxCell id="aduVR0IKgrhrelH6BX9p-21" style="edgeStyle=orthogonalEdgeStyle;rounded=0;orthogonalLoop=1;jettySize=auto;html=1;entryX=0;entryY=0.088;entryDx=0;entryDy=0;entryPerimeter=0;strokeColor=#FF0000;" parent="1" source="aduVR0IKgrhrelH6BX9p-6" target="aduVR0IKgrhrelH6BX9p-18" edge="1">
          <mxGeometry relative="1" as="geometry" />
        </mxCell>
        <mxCell id="aduVR0IKgrhrelH6BX9p-6" value="Conntected with Finger Print Scanner" style="rounded=1;whiteSpace=wrap;html=1;arcSize=24;strokeColor=#ff0000;shadow=0;comic=0;labelBackgroundColor=none;fontFamily=Verdana;fontSize=12;fontColor=#000000;align=center;fillColor=#FFD966;" parent="1" vertex="1">
          <mxGeometry x="265" y="40" width="155" height="55" as="geometry" />
        </mxCell>
        <mxCell id="aduVR0IKgrhrelH6BX9p-7" value="" style="endArrow=classic;html=1;entryX=0;entryY=0.5;entryDx=0;entryDy=0;strokeColor=#FF0000;" parent="1" target="aduVR0IKgrhrelH6BX9p-6" edge="1">
          <mxGeometry width="50" height="50" relative="1" as="geometry">
            <mxPoint x="194" y="68" as="sourcePoint" />
            <mxPoint x="330" y="140" as="targetPoint" />
          </mxGeometry>
        </mxCell>
        <mxCell id="aduVR0IKgrhrelH6BX9p-20" style="edgeStyle=orthogonalEdgeStyle;rounded=0;orthogonalLoop=1;jettySize=auto;html=1;entryX=0;entryY=0.294;entryDx=0;entryDy=0;entryPerimeter=0;strokeColor=#FF0000;" parent="1" source="aduVR0IKgrhrelH6BX9p-8" target="aduVR0IKgrhrelH6BX9p-18" edge="1">
          <mxGeometry relative="1" as="geometry" />
        </mxCell>
        <mxCell id="aduVR0IKgrhrelH6BX9p-8" value="&lt;div&gt;Conntected with&lt;/div&gt;&lt;div&gt;Magazine Level Sensor&lt;br&gt; &lt;/div&gt;" style="rounded=1;whiteSpace=wrap;html=1;arcSize=24;strokeColor=#ff0000;shadow=0;comic=0;labelBackgroundColor=none;fontFamily=Verdana;fontSize=12;fontColor=#000000;align=center;fillColor=#FFD966;" parent="1" vertex="1">
          <mxGeometry x="265" y="110" width="155" height="55" as="geometry" />
        </mxCell>
        <mxCell id="aduVR0IKgrhrelH6BX9p-9" value="" style="endArrow=classic;html=1;entryX=0;entryY=0.5;entryDx=0;entryDy=0;strokeColor=#FF0000;" parent="1" target="aduVR0IKgrhrelH6BX9p-8" edge="1">
          <mxGeometry width="50" height="50" relative="1" as="geometry">
            <mxPoint x="195" y="138" as="sourcePoint" />
            <mxPoint x="265" y="140" as="targetPoint" />
          </mxGeometry>
        </mxCell>
        <mxCell id="aduVR0IKgrhrelH6BX9p-22" style="edgeStyle=orthogonalEdgeStyle;rounded=0;orthogonalLoop=1;jettySize=auto;html=1;strokeColor=#FF0000;" parent="1" source="aduVR0IKgrhrelH6BX9p-10" target="aduVR0IKgrhrelH6BX9p-18" edge="1">
          <mxGeometry relative="1" as="geometry" />
        </mxCell>
        <mxCell id="aduVR0IKgrhrelH6BX9p-10" value="&lt;div&gt;Conntected with&lt;/div&gt;&lt;div&gt;Magazine Level Sensor&lt;br&gt; &lt;/div&gt;" style="rounded=1;whiteSpace=wrap;html=1;arcSize=24;strokeColor=#ff0000;shadow=0;comic=0;labelBackgroundColor=none;fontFamily=Verdana;fontSize=12;fontColor=#000000;align=center;fillColor=#FFD966;" parent="1" vertex="1">
          <mxGeometry x="265" y="180" width="155" height="55" as="geometry" />
        </mxCell>
        <mxCell id="aduVR0IKgrhrelH6BX9p-23" style="edgeStyle=orthogonalEdgeStyle;rounded=0;orthogonalLoop=1;jettySize=auto;html=1;entryX=0;entryY=0.721;entryDx=0;entryDy=0;entryPerimeter=0;strokeColor=#FF0000;" parent="1" source="aduVR0IKgrhrelH6BX9p-12" target="aduVR0IKgrhrelH6BX9p-18" edge="1">
          <mxGeometry relative="1" as="geometry" />
        </mxCell>
        <mxCell id="aduVR0IKgrhrelH6BX9p-12" value="&lt;div&gt;Conntected with&lt;/div&gt;&lt;div&gt;Magazine Level Sensor&lt;br&gt; &lt;/div&gt;" style="rounded=1;whiteSpace=wrap;html=1;arcSize=24;strokeColor=#ff0000;shadow=0;comic=0;labelBackgroundColor=none;fontFamily=Verdana;fontSize=12;fontColor=#000000;align=center;fillColor=#FFD966;" parent="1" vertex="1">
          <mxGeometry x="265" y="255" width="155" height="55" as="geometry" />
        </mxCell>
        <mxCell id="aduVR0IKgrhrelH6BX9p-14" value="" style="endArrow=classic;html=1;strokeColor=#FF0000;entryX=0;entryY=0.636;entryDx=0;entryDy=0;entryPerimeter=0;" parent="1" target="aduVR0IKgrhrelH6BX9p-12" edge="1">
          <mxGeometry width="50" height="50" relative="1" as="geometry">
            <mxPoint x="197" y="290" as="sourcePoint" />
            <mxPoint x="230" y="370" as="targetPoint" />
          </mxGeometry>
        </mxCell>
        <mxCell id="aduVR0IKgrhrelH6BX9p-15" value="" style="endArrow=classic;html=1;strokeColor=#FF0000;" parent="1" edge="1">
          <mxGeometry width="50" height="50" relative="1" as="geometry">
            <mxPoint x="195" y="350.02" as="sourcePoint" />
            <mxPoint x="263" y="350" as="targetPoint" />
          </mxGeometry>
        </mxCell>
        <mxCell id="aduVR0IKgrhrelH6BX9p-24" style="edgeStyle=orthogonalEdgeStyle;rounded=0;orthogonalLoop=1;jettySize=auto;html=1;entryX=-0.133;entryY=0.926;entryDx=0;entryDy=0;entryPerimeter=0;strokeColor=#FF0000;" parent="1" source="aduVR0IKgrhrelH6BX9p-16" target="aduVR0IKgrhrelH6BX9p-18" edge="1">
          <mxGeometry relative="1" as="geometry" />
        </mxCell>
        <mxCell id="aduVR0IKgrhrelH6BX9p-16" value="&lt;div&gt;Conntected with&lt;/div&gt;&lt;div&gt;Magazine Level Sensor&lt;br&gt; &lt;/div&gt;" style="rounded=1;whiteSpace=wrap;html=1;arcSize=24;strokeColor=#ff0000;shadow=0;comic=0;labelBackgroundColor=none;fontFamily=Verdana;fontSize=12;fontColor=#000000;align=center;fillColor=#FFD966;" parent="1" vertex="1">
          <mxGeometry x="265" y="325" width="155" height="55" as="geometry" />
        </mxCell>
        <mxCell id="aduVR0IKgrhrelH6BX9p-25" style="edgeStyle=orthogonalEdgeStyle;rounded=0;orthogonalLoop=1;jettySize=auto;html=1;strokeColor=#FF0000;entryX=0;entryY=0.5;entryDx=0;entryDy=0;" parent="1" source="aduVR0IKgrhrelH6BX9p-18" target="aduVR0IKgrhrelH6BX9p-27" edge="1">
          <mxGeometry relative="1" as="geometry">
            <mxPoint x="630" y="207.5" as="targetPoint" />
            <Array as="points">
              <mxPoint x="530" y="225" />
              <mxPoint x="530" y="225" />
            </Array>
          </mxGeometry>
        </mxCell>
        <mxCell id="aduVR0IKgrhrelH6BX9p-18" value="" style="html=1;points=[];perimeter=orthogonalPerimeter;fillColor=#000000;strokeColor=none;" parent="1" vertex="1">
          <mxGeometry x="490" y="37.5" width="5" height="340" as="geometry" />
        </mxCell>
        <mxCell id="aduVR0IKgrhrelH6BX9p-27" value="&lt;div&gt;Gun&lt;/div&gt;&lt;div&gt;Turned off&lt;br&gt;&lt;/div&gt;" style="rounded=1;whiteSpace=wrap;html=1;arcSize=24;strokeColor=#ff0000;shadow=0;comic=0;labelBackgroundColor=none;fontFamily=Verdana;fontSize=12;fontColor=#000000;align=center;fillColor=#FFD966;" parent="1" vertex="1">
          <mxGeometry x="610" y="195" width="110" height="60" as="geometry" />
        </mxCell>
        <mxCell id="aduVR0IKgrhrelH6BX9p-29" value="" style="edgeStyle=elbowEdgeStyle;elbow=vertical;endArrow=classic;html=1;strokeColor=#FF0000;exitX=1;exitY=0.5;exitDx=0;exitDy=0;entryX=0.991;entryY=0.617;entryDx=0;entryDy=0;entryPerimeter=0;" parent="1" source="aduVR0IKgrhrelH6BX9p-27" target="aduVR0IKgrhrelH6BX9p-33" edge="1">
          <mxGeometry width="50" height="50" relative="1" as="geometry">
            <mxPoint x="690" y="380" as="sourcePoint" />
            <mxPoint x="725" y="450" as="targetPoint" />
            <Array as="points">
              <mxPoint x="760" y="350" />
              <mxPoint x="820" y="225" />
              <mxPoint x="770" y="290" />
            </Array>
          </mxGeometry>
        </mxCell>
        <mxCell id="aduVR0IKgrhrelH6BX9p-40" style="edgeStyle=orthogonalEdgeStyle;rounded=0;orthogonalLoop=1;jettySize=auto;html=1;strokeColor=#FF0000;entryX=1;entryY=0.5;entryDx=0;entryDy=0;" parent="1" source="aduVR0IKgrhrelH6BX9p-33" target="aduVR0IKgrhrelH6BX9p-41" edge="1">
          <mxGeometry relative="1" as="geometry">
            <mxPoint x="530" y="530" as="targetPoint" />
          </mxGeometry>
        </mxCell>
        <mxCell id="aduVR0IKgrhrelH6BX9p-33" value="&lt;div&gt;Gun&lt;/div&gt;&lt;div&gt;Turned on&lt;br&gt;&lt;/div&gt;" style="rounded=1;whiteSpace=wrap;html=1;arcSize=24;strokeColor=#ff0000;shadow=0;comic=0;labelBackgroundColor=none;fontFamily=Verdana;fontSize=12;fontColor=#000000;align=center;fillColor=#FFD966;" parent="1" vertex="1">
          <mxGeometry x="620" y="500" width="110" height="60" as="geometry" />
        </mxCell>
        <mxCell id="aduVR0IKgrhrelH6BX9p-34" value="&lt;div&gt;[ push &lt;br&gt;&lt;/div&gt;&lt;div&gt;Power Switch]&lt;/div&gt;&lt;div&gt;&lt;br&gt;&lt;/div&gt;" style="text;html=1;align=center;verticalAlign=middle;resizable=0;points=[];autosize=1;" parent="1" vertex="1">
          <mxGeometry x="760" y="360" width="90" height="50" as="geometry" />
        </mxCell>
        <mxCell id="aduVR0IKgrhrelH6BX9p-35" value="&lt;div&gt;[ pull&lt;/div&gt;&lt;div&gt; Power Switch]&lt;/div&gt;&lt;div&gt;&lt;br&gt;&lt;/div&gt;" style="text;html=1;align=center;verticalAlign=middle;resizable=0;points=[];autosize=1;" parent="1" vertex="1">
          <mxGeometry x="570" y="430" width="90" height="50" as="geometry" />
        </mxCell>
        <mxCell id="aduVR0IKgrhrelH6BX9p-37" value="" style="edgeStyle=segmentEdgeStyle;endArrow=classic;html=1;strokeColor=#FF0000;entryX=0.75;entryY=1;entryDx=0;entryDy=0;" parent="1" source="aduVR0IKgrhrelH6BX9p-33" target="aduVR0IKgrhrelH6BX9p-27" edge="1">
          <mxGeometry width="50" height="50" relative="1" as="geometry">
            <mxPoint x="600" y="450" as="sourcePoint" />
            <mxPoint x="650" y="400" as="targetPoint" />
            <Array as="points">
              <mxPoint x="693" y="380" />
            </Array>
          </mxGeometry>
        </mxCell>
        <mxCell id="aduVR0IKgrhrelH6BX9p-45" style="edgeStyle=orthogonalEdgeStyle;rounded=0;orthogonalLoop=1;jettySize=auto;html=1;entryX=0.5;entryY=1;entryDx=0;entryDy=0;strokeColor=#FF0000;exitX=0.5;exitY=0;exitDx=0;exitDy=0;" parent="1" source="aduVR0IKgrhrelH6BX9p-41" target="aduVR0IKgrhrelH6BX9p-27" edge="1">
          <mxGeometry relative="1" as="geometry">
            <mxPoint x="478" y="490" as="sourcePoint" />
            <Array as="points">
              <mxPoint x="465" y="470" />
              <mxPoint x="665" y="470" />
            </Array>
          </mxGeometry>
        </mxCell>
        <mxCell id="aduVR0IKgrhrelH6BX9p-46" style="edgeStyle=orthogonalEdgeStyle;rounded=0;orthogonalLoop=1;jettySize=auto;html=1;strokeColor=#FF0000;entryX=1;entryY=0.5;entryDx=0;entryDy=0;" parent="1" source="aduVR0IKgrhrelH6BX9p-41" target="aduVR0IKgrhrelH6BX9p-48" edge="1">
          <mxGeometry relative="1" as="geometry">
            <mxPoint x="280" y="530" as="targetPoint" />
          </mxGeometry>
        </mxCell>
        <mxCell id="aduVR0IKgrhrelH6BX9p-41" value="Fingerprint taken out" style="rounded=1;whiteSpace=wrap;html=1;arcSize=24;strokeColor=#ff0000;shadow=0;comic=0;labelBackgroundColor=none;fontFamily=Verdana;fontSize=12;fontColor=#000000;align=center;fillColor=#FFD966;" parent="1" vertex="1">
          <mxGeometry x="400" y="500" width="130" height="60" as="geometry" />
        </mxCell>
        <mxCell id="aduVR0IKgrhrelH6BX9p-42" value="&lt;div&gt;[ create data]&lt;/div&gt;&lt;div&gt;&lt;br&gt;&lt;/div&gt;" style="text;html=1;align=center;verticalAlign=middle;resizable=0;points=[];autosize=1;" parent="1" vertex="1">
          <mxGeometry x="520" y="500" width="90" height="30" as="geometry" />
        </mxCell>
        <mxCell id="aduVR0IKgrhrelH6BX9p-54" style="edgeStyle=orthogonalEdgeStyle;rounded=0;orthogonalLoop=1;jettySize=auto;html=1;strokeColor=#FF0000;entryX=0.5;entryY=0;entryDx=0;entryDy=0;" parent="1" source="aduVR0IKgrhrelH6BX9p-48" target="aduVR0IKgrhrelH6BX9p-56" edge="1">
          <mxGeometry relative="1" as="geometry">
            <mxPoint x="60" y="640" as="targetPoint" />
            <Array as="points">
              <mxPoint x="100" y="530" />
              <mxPoint x="100" y="620" />
              <mxPoint x="400" y="620" />
            </Array>
          </mxGeometry>
        </mxCell>
        <mxCell id="aduVR0IKgrhrelH6BX9p-48" value="&lt;div&gt;Message delivered&lt;/div&gt;to local distributor" style="rounded=1;whiteSpace=wrap;html=1;arcSize=24;strokeColor=#ff0000;shadow=0;comic=0;labelBackgroundColor=none;fontFamily=Verdana;fontSize=12;fontColor=#000000;align=center;fillColor=#FFD966;" parent="1" vertex="1">
          <mxGeometry x="110" y="500" width="140" height="60" as="geometry" />
        </mxCell>
        <mxCell id="aduVR0IKgrhrelH6BX9p-49" value="[send data to Distributor]" style="text;html=1;align=center;verticalAlign=middle;resizable=0;points=[];autosize=1;" parent="1" vertex="1">
          <mxGeometry x="250" y="505" width="150" height="20" as="geometry" />
        </mxCell>
        <mxCell id="aduVR0IKgrhrelH6BX9p-51" value="" style="curved=1;endArrow=classic;html=1;strokeColor=#FF0000;entryX=0.5;entryY=1;entryDx=0;entryDy=0;exitX=0.457;exitY=1.033;exitDx=0;exitDy=0;exitPerimeter=0;" parent="1" source="aduVR0IKgrhrelH6BX9p-48" target="aduVR0IKgrhrelH6BX9p-33" edge="1">
          <mxGeometry width="50" height="50" relative="1" as="geometry">
            <mxPoint x="320" y="720" as="sourcePoint" />
            <mxPoint x="370" y="670" as="targetPoint" />
            <Array as="points">
              <mxPoint x="340" y="580" />
              <mxPoint x="410" y="590" />
              <mxPoint x="490" y="590" />
              <mxPoint x="570" y="570" />
              <mxPoint x="630" y="570" />
            </Array>
          </mxGeometry>
        </mxCell>
        <mxCell id="aduVR0IKgrhrelH6BX9p-52" value="[accessDenied]" style="edgeLabel;html=1;align=center;verticalAlign=middle;resizable=0;points=[];" parent="aduVR0IKgrhrelH6BX9p-51" vertex="1" connectable="0">
          <mxGeometry x="0.0483" y="2" relative="1" as="geometry">
            <mxPoint as="offset" />
          </mxGeometry>
        </mxCell>
        <mxCell id="aduVR0IKgrhrelH6BX9p-59" style="edgeStyle=orthogonalEdgeStyle;rounded=0;orthogonalLoop=1;jettySize=auto;html=1;strokeColor=#FF0000;" parent="1" source="aduVR0IKgrhrelH6BX9p-56" target="aduVR0IKgrhrelH6BX9p-57" edge="1">
          <mxGeometry relative="1" as="geometry" />
        </mxCell>
        <mxCell id="aduVR0IKgrhrelH6BX9p-56" value="Policeman added to users" style="rounded=1;whiteSpace=wrap;html=1;arcSize=24;strokeColor=#ff0000;shadow=0;comic=0;labelBackgroundColor=none;fontFamily=Verdana;fontSize=12;fontColor=#000000;align=center;fillColor=#FFD966;" parent="1" vertex="1">
          <mxGeometry x="330" y="640" width="140" height="60" as="geometry" />
        </mxCell>
        <mxCell id="aduVR0IKgrhrelH6BX9p-63" style="edgeStyle=orthogonalEdgeStyle;rounded=0;orthogonalLoop=1;jettySize=auto;html=1;strokeColor=#FF0000;" parent="1" source="aduVR0IKgrhrelH6BX9p-57" edge="1">
          <mxGeometry relative="1" as="geometry">
            <mxPoint x="400" y="890" as="targetPoint" />
          </mxGeometry>
        </mxCell>
        <mxCell id="aduVR0IKgrhrelH6BX9p-57" value="Gun in use state" style="rounded=1;whiteSpace=wrap;html=1;arcSize=24;strokeColor=#ff0000;shadow=0;comic=0;labelBackgroundColor=none;fontFamily=Verdana;fontSize=12;fontColor=#000000;align=center;fillColor=#FFD966;" parent="1" vertex="1">
          <mxGeometry x="330" y="770" width="140" height="60" as="geometry" />
        </mxCell>
        <mxCell id="aduVR0IKgrhrelH6BX9p-60" value="[gun is accesible and automatically blocked in state]" style="text;html=1;strokeColor=none;fillColor=none;align=center;verticalAlign=middle;whiteSpace=wrap;rounded=0;" parent="1" vertex="1">
          <mxGeometry x="420" y="720" width="170" height="20" as="geometry" />
        </mxCell>
        <mxCell id="aduVR0IKgrhrelH6BX9p-61" value="" style="curved=1;endArrow=classic;html=1;strokeColor=#FF0000;exitX=0;exitY=0.5;exitDx=0;exitDy=0;entryX=0.25;entryY=1;entryDx=0;entryDy=0;" parent="1" source="aduVR0IKgrhrelH6BX9p-57" target="aduVR0IKgrhrelH6BX9p-27" edge="1">
          <mxGeometry width="50" height="50" relative="1" as="geometry">
            <mxPoint x="100" y="750" as="sourcePoint" />
            <mxPoint x="50" y="500" as="targetPoint" />
            <Array as="points">
              <mxPoint x="180" y="730" />
              <mxPoint x="50" y="670" />
              <mxPoint y="420" />
              <mxPoint x="600" y="450" />
            </Array>
          </mxGeometry>
        </mxCell>
        <mxCell id="aduVR0IKgrhrelH6BX9p-62" value="&lt;div&gt;[ pull&lt;/div&gt;&lt;div&gt; Power Switch]&lt;/div&gt;&lt;div&gt;&lt;br&gt;&lt;/div&gt;" style="text;html=1;align=center;verticalAlign=middle;resizable=0;points=[];autosize=1;" parent="1" vertex="1">
          <mxGeometry x="160" y="680" width="90" height="50" as="geometry" />
        </mxCell>
        <mxCell id="aduVR0IKgrhrelH6BX9p-64" value="" style="ellipse;html=1;shape=endState;fillColor=#000000;strokeColor=#000000;" parent="1" vertex="1">
          <mxGeometry x="385" y="890" width="30" height="30" as="geometry" />
        </mxCell>
      </root>
    </mxGraphModel>
  </diagram>
</mxfile>
